<svg width="163" height="41" fill="none" xmlns="http://www.w3.org/2000/svg"><g clip-path="url(#a)"><path d="M59.556 30.036c-1.247 0-2.396-.23-3.45-.688a8.711 8.711 0 0 1-2.744-1.868 8.926 8.926 0 0 1-1.798-2.827 9.157 9.157 0 0 1-.656-3.466v-.049c0-1.229.21-2.376.632-3.441a8.713 8.713 0 0 1 1.822-2.827 8.265 8.265 0 0 1 2.77-1.917c1.068-.475 2.25-.713 3.546-.713.777 0 1.482.066 2.113.197.648.131 1.24.32 1.774.565.534.23 1.028.508 1.481.836.454.328.883.688 1.288 1.082l-1.92 2.236a9.589 9.589 0 0 0-2.161-1.548c-.761-.394-1.628-.59-2.6-.59a5.24 5.24 0 0 0-2.259.491 5.373 5.373 0 0 0-1.773 1.303c-.502.54-.89 1.18-1.166 1.917a6.692 6.692 0 0 0-.413 2.36v.05c0 .835.138 1.63.413 2.384a6.006 6.006 0 0 0 1.166 1.941c.502.558 1.093 1 1.773 1.328a5.47 5.47 0 0 0 2.26.467c1.036 0 1.927-.197 2.672-.59.745-.41 1.482-.959 2.21-1.647l1.92 1.966a11.27 11.27 0 0 1-1.385 1.278c-.47.36-.98.68-1.53.96a7.687 7.687 0 0 1-1.823.589 9.755 9.755 0 0 1-2.162.221ZM76.447 30.036c-1.247 0-2.397-.23-3.45-.688a8.712 8.712 0 0 1-2.745-1.868 8.926 8.926 0 0 1-1.798-2.827 9.16 9.16 0 0 1-.656-3.466v-.049c0-1.229.211-2.376.632-3.441a8.713 8.713 0 0 1 1.822-2.827 8.266 8.266 0 0 1 2.77-1.917c1.068-.475 2.25-.713 3.546-.713.778 0 1.482.066 2.114.197.647.131 1.239.32 1.773.565.534.23 1.028.508 1.482.836.453.328.882.688 1.287 1.082l-1.919 2.236a9.587 9.587 0 0 0-2.162-1.548c-.761-.394-1.627-.59-2.6-.59-.809 0-1.562.164-2.258.491a5.375 5.375 0 0 0-1.774 1.303c-.502.54-.89 1.18-1.166 1.917a6.69 6.69 0 0 0-.413 2.36v.05c0 .835.138 1.63.413 2.384a6.008 6.008 0 0 0 1.166 1.941c.502.558 1.093 1 1.774 1.328a5.47 5.47 0 0 0 2.259.467c1.036 0 1.927-.197 2.672-.59.745-.41 1.482-.959 2.21-1.647l1.92 1.966c-.438.476-.9.902-1.385 1.278-.47.36-.98.68-1.53.96a7.686 7.686 0 0 1-1.822.589 9.756 9.756 0 0 1-2.162.221ZM85.272 11.798h2.94V29.74h-2.94V11.798ZM99.802 22.343a4.967 4.967 0 0 0-.316-1.328 3.262 3.262 0 0 0-.656-1.081 2.995 2.995 0 0 0-.996-.738c-.372-.18-.801-.27-1.287-.27-.907 0-1.66.32-2.26.959-.583.622-.939 1.442-1.068 2.458h6.583Zm-2.915 7.693c-.923 0-1.79-.164-2.6-.491a6.463 6.463 0 0 1-2.089-1.377 6.53 6.53 0 0 1-1.384-2.114c-.34-.835-.51-1.753-.51-2.753v-.049c0-.934.153-1.81.461-2.63a6.587 6.587 0 0 1 1.288-2.138 6.022 6.022 0 0 1 1.992-1.45c.76-.361 1.603-.541 2.526-.541 1.02 0 1.911.188 2.672.565a5.38 5.38 0 0 1 1.919 1.524c.519.639.907 1.385 1.166 2.237.259.835.389 1.72.389 2.654 0 .131-.008.27-.024.418 0 .131-.008.27-.025.418h-9.425c.162 1.065.575 1.884 1.239 2.458.68.557 1.498.836 2.453.836.73 0 1.36-.131 1.895-.394.535-.262 1.061-.647 1.579-1.155l1.725 1.549a7.059 7.059 0 0 1-2.21 1.77c-.843.442-1.855.663-3.037.663ZM112.544 24.31a7.426 7.426 0 0 0-1.336-.37 8.335 8.335 0 0 0-1.604-.147c-.923 0-1.643.18-2.162.54-.518.361-.777.853-.777 1.475v.05c0 .622.235 1.098.704 1.425.486.328 1.077.492 1.774.492.486 0 .931-.066 1.336-.197a3.606 3.606 0 0 0 1.093-.54 2.53 2.53 0 0 0 .972-1.991v-.738Zm-.073 5.431v-1.598c-.437.525-.996.967-1.676 1.328-.68.36-1.506.54-2.478.54a5.58 5.58 0 0 1-1.749-.27 4.377 4.377 0 0 1-1.458-.737 4.184 4.184 0 0 1-.996-1.254c-.243-.508-.364-1.09-.364-1.745v-.05c0-.72.129-1.343.389-1.867.259-.54.615-.983 1.068-1.328a4.565 4.565 0 0 1 1.652-.786 7.769 7.769 0 0 1 2.089-.27c.778 0 1.434.049 1.968.147.551.098 1.077.23 1.579.393V22c0-.902-.275-1.59-.826-2.065-.534-.475-1.312-.713-2.332-.713-.729 0-1.376.074-1.943.221-.567.148-1.142.344-1.725.59l-.802-2.384c.713-.328 1.442-.59 2.187-.787.745-.196 1.643-.295 2.696-.295 1.911 0 3.328.484 4.251 1.45.923.951 1.385 2.295 1.385 4.032v7.693h-2.915ZM117.838 16.763h2.939v2.016c.21-.312.437-.599.68-.86.259-.28.551-.525.875-.738a4.38 4.38 0 0 1 1.093-.492 4.401 4.401 0 0 1 1.36-.196c1.458 0 2.583.45 3.377 1.352.793.9 1.19 2.113 1.19 3.637v8.26h-2.939v-7.375c0-1.016-.243-1.794-.729-2.335-.47-.557-1.142-.836-2.016-.836-.859 0-1.555.287-2.089.86-.535.558-.802 1.344-.802 2.36v7.325h-2.939V16.763ZM140.651 22.343a4.944 4.944 0 0 0-.316-1.328 3.252 3.252 0 0 0-.656-1.081 2.99 2.99 0 0 0-.996-.738c-.372-.18-.801-.27-1.287-.27-.907 0-1.66.32-2.259.959-.583.622-.94 1.442-1.069 2.458h6.583Zm-2.915 7.693c-.923 0-1.79-.164-2.599-.491a6.456 6.456 0 0 1-2.089-1.377 6.53 6.53 0 0 1-1.385-2.114c-.34-.835-.51-1.753-.51-2.753v-.049c0-.934.154-1.81.461-2.63a6.588 6.588 0 0 1 1.288-2.138 6.026 6.026 0 0 1 1.992-1.45c.761-.361 1.603-.541 2.526-.541 1.021 0 1.911.188 2.672.565a5.383 5.383 0 0 1 1.92 1.524 6.54 6.54 0 0 1 1.166 2.237c.259.835.388 1.72.388 2.654 0 .131-.008.27-.024.418 0 .131-.008.27-.024.418h-9.426c.162 1.065.575 1.884 1.239 2.458.68.557 1.498.836 2.454.836.728 0 1.36-.131 1.894-.394.535-.262 1.061-.647 1.579-1.155l1.725 1.549a7.063 7.063 0 0 1-2.21 1.77c-.843.442-1.855.663-3.037.663ZM145.474 16.763h2.939v2.925c.405-.983.98-1.77 1.725-2.36.745-.59 1.684-.86 2.818-.81v3.145h-.17c-.648 0-1.239.107-1.774.32a3.707 3.707 0 0 0-1.384.959c-.389.426-.689.966-.899 1.622-.211.639-.316 1.385-.316 2.237v4.94h-2.939V16.763Z" fill="#303030"/><g filter="url(#b)"><path d="m43.19 30.655-6.178-6.3c-.285-.337-.628-.314-.628-.314-.44-.006-.678.419-.678.419-2.574 4.007-7.446 4.17-8.217 4.17h-.319c-4.516 0-8.176-3.69-8.176-8.24 0-4.552 3.66-8.243 8.177-8.243 0 0 .046-.002.137-.002.765 0 4.612.18 7.838 3.626.195.208.387.458.574.63 0 0 .208.242.562.242.338 0 .549-.275.549-.275l5.94-6.934a.89.89 0 0 0 .19-.68c-.031-.264-.17-.458-.17-.458a19.79 19.79 0 0 0-6.742-5.632A19.48 19.48 0 0 0 27.17.537C16.29.537 7.477 9.426 7.477 20.392a19.875 19.875 0 0 0 5.81 14.081c3.562 3.569 8.467 5.774 13.883 5.774 6.44 0 12.13-3.138 15.724-7.953 0 0 .206-.306.4-.611.352-.558-.103-1.028-.103-1.028Z" fill="url(#c)"/></g><path d="M26.169 28.567c-3.877-.475-6.917-3.686-7.161-7.662a35.865 35.865 0 0 1-5.872-14.45 19.876 19.876 0 0 0-5.665 13.934c0 10.966 8.818 19.854 19.694 19.854 4.968 0 9.493-1.869 12.95-4.937a35.115 35.115 0 0 1-13.946-6.74Z" fill="url(#d)"/><path opacity=".7" d="M30.27 31.38a35.387 35.387 0 0 1-4.1-2.813 7.472 7.472 0 0 1-.347-.05c-.008-.002-.016-.002-.024-.005a6.053 6.053 0 0 1-.313-.061c-.02-.003-.038-.009-.058-.011a4.44 4.44 0 0 1-.277-.067l-.087-.022a8.137 8.137 0 0 1-.247-.07c-.039-.01-.075-.022-.113-.033-.074-.025-.148-.047-.222-.075-.041-.014-.082-.03-.126-.044-.036-.014-.072-.025-.107-.04-2.289 6.149-4.92 8.479-6.072 9.25a3.07 3.07 0 0 1-.689.342c.352.2.708.395 1.076.575 3.377-.622 6.43-2.205 9.303-4.682.92-.791 1.74-1.555 2.404-2.193Z" fill="url(#e)"/><mask id="f" style="mask-type:alpha" maskUnits="userSpaceOnUse" x="7" y="0" width="37" height="41"><path d="m43.19 30.654-6.178-6.3c-.285-.337-.628-.314-.628-.314-.44-.006-.678.419-.678.419-2.574 4.007-7.446 4.17-8.217 4.17h-.319c-4.516 0-8.176-3.69-8.176-8.24 0-4.552 3.66-8.243 8.177-8.243 0 0 .046-.003.137-.003.765 0 4.612.181 7.838 3.627.195.208.387.458.574.63 0 0 .208.242.562.242.338 0 .549-.275.549-.275l5.94-6.934a.89.89 0 0 0 .19-.68c-.031-.264-.17-.458-.17-.458a19.79 19.79 0 0 0-6.742-5.632A19.48 19.48 0 0 0 27.17.536C16.29.536 7.477 9.425 7.477 20.391a19.875 19.875 0 0 0 5.81 14.081c3.562 3.569 8.467 5.774 13.883 5.774 6.44 0 12.13-3.138 15.724-7.953 0 0 .206-.306.4-.611.352-.558-.103-1.028-.103-1.028Z" fill="#fff"/></mask><g mask="url(#f)"><ellipse cx="10.301" cy="7.248" rx="11.85" ry="11.993" fill="url(#g)"/><path d="M53.86 16.623c8.289 8.389 10.38 19.877 4.667 25.658-5.712 5.782-17.063 3.666-25.351-4.723-8.289-8.389-10.38-19.877-4.667-25.659 5.712-5.781 17.063-3.665 25.351 4.724Z" fill="url(#h)"/><ellipse cx="43.426" cy="7.632" rx="13.2" ry="13.36" fill="url(#i)"/><path opacity=".16" d="M37.61 5.722c-1.44 11.932-7.007 21.062-12.433 20.39-5.427-.672-8.66-10.888-7.219-22.82 1.44-11.933 7.007-21.063 12.434-20.39 5.427.671 8.66 10.887 7.219 22.82Z" fill="url(#j)"/><ellipse opacity=".5" cx="33.703" cy="26.378" rx="14.541" ry="14.709" fill="url(#k)"/></g><g filter="url(#l)"><path d="M21.03 24.83s-.205-.02-.4-.18c-.176-.145-6.804-4.377-8.168-5.249 0 0-4.055 6.293-12 7.912 0 0-.149.041-.077.38.071.339.886 2.963 3.344 5.485 0 0 .593.638 1.353.84.757.204 2.17.154 2.968 0 0 0-.343.312-1.673 1.178a.188.188 0 0 0-.08.211c.033.111.146.259.423.456.521.372 2.228 1.43 3.328 1.858 0 0 .39.269 1.98.274h1.482l1.142-.641-.527.641s1.63.042 2.974-.224a3.072 3.072 0 0 0 1.1-.456c1.295-.866 4.467-3.696 6.911-11.707l-4.08-.778Z" fill="url(#m)"/></g><path d="M25.805 19.734s-9.474-3.96-10.085-4.204a1.054 1.054 0 0 0-.385-.08c-.34 0-.488.219-.488.219l-2.628 3.573s8.22 5.243 8.415 5.407c.194.164.4.18.4.18l4.557.87s.54-4.268.656-5.027c.118-.794-.442-.938-.442-.938Z" fill="url(#n)"/><path d="M21.03 24.83s-.057-.005-.14-.033c-4.938 10.1-10.845 12.924-10.845 12.924s.39.269 1.98.274h1.482l1.142-.641-.527.641s1.63.042 2.974-.224a3.055 3.055 0 0 0 1.1-.459c1.298-.866 4.467-3.698 6.912-11.707l-4.078-.775Z" fill="url(#o)"/><path opacity=".25" d="M21.03 24.83s-.057-.005-.14-.033c-4.938 10.1-10.845 12.924-10.845 12.924s.39.269 1.98.274h1.482l1.142-.641-.527.641s1.63.042 2.974-.224a3.055 3.055 0 0 0 1.1-.459c1.298-.866 4.467-3.698 6.912-11.707l-4.078-.775Z" fill="url(#p)"/><path d="M19.33 17.03 25.775 3.33s.43-1.014 1.674-.542c1.207.506.507 1.755.507 1.755l-5.498 13.793-3.128-1.305Z" fill="url(#q)"/><path d="m20.672 17.233 5.57-12.937s.282-.617.23-.961c-.044-.292-.351-.389-.57-.192-.017.014-.031.03-.047.047a.987.987 0 0 0-.08.142L19.33 17.03l1.087.336c.002 0 .194.059.255-.133Z" fill="url(#r)"/><path d="M18.918 28.393a43.784 43.784 0 0 0 1.973-3.596.79.79 0 0 1-.26-.147c-.176-.145-6.805-4.377-8.169-5.249 0 0-.688 1.067-2.052 2.436l8.508 6.556Z" fill="url(#s)"/><path d="m25.804 19.734-1.235-.516c-1.114-.464-1.306.142-1.306.142a.617.617 0 0 1-.022.066c-.003.006-.003.008-.003.014l-.024.08-.025.081c-.708 2.183-2.283 5.168-2.296 5.196.082.027.14.036.14.036l4.557.869s.54-4.268.655-5.026c.118-.797-.441-.942-.441-.942Z" fill="url(#t)"/><path d="M23.999 28.785c.379-.959.752-2.011 1.106-3.177l-4.075-.778s-.057-.005-.14-.033a43.068 43.068 0 0 1-1.775 3.271l4.884.716Z" fill="url(#u)"/></g><defs><linearGradient id="c" x1="10.018" y1="43.36" x2="46.698" y2="39.083" gradientUnits="userSpaceOnUse"><stop stop-color="#C62522"/><stop offset=".416" stop-color="#E77056"/><stop offset=".7" stop-color="#E77056"/><stop offset="1" stop-color="#C1483F"/></linearGradient><linearGradient id="d" x1="-5.483" y1="17.772" x2="14.797" y2="50.956" gradientUnits="userSpaceOnUse"><stop offset=".004" stop-color="#CB2D29"/><stop offset=".325" stop-color="#D53736"/><stop offset="1" stop-color="#CB2D29"/></linearGradient><linearGradient id="e" x1="19.111" y1="26.944" x2="16.531" y2="38.285" gradientUnits="userSpaceOnUse"><stop stop-color="#D14C3D" stop-opacity=".01"/><stop offset=".492" stop-color="#A72520" stop-opacity=".637"/><stop offset=".773" stop-color="#941313"/></linearGradient><linearGradient id="m" x1="-4.128" y1="28.681" x2="8.43" y2="44.439" gradientUnits="userSpaceOnUse"><stop stop-color="#F8E6C9"/><stop offset=".38" stop-color="#F6E0BE"/><stop offset=".787" stop-color="#F0C789"/><stop offset="1" stop-color="#EDBC73"/></linearGradient><linearGradient id="n" x1="8.771" y1="22.515" x2="19.664" y2="31.732" gradientUnits="userSpaceOnUse"><stop stop-color="#7EC0E5"/><stop offset=".19" stop-color="#63B3DF"/><stop offset=".478" stop-color="#178CCB"/><stop offset=".675" stop-color="#0269B0"/><stop offset="1" stop-color="#025596"/></linearGradient><linearGradient id="o" x1="10.576" y1="23.323" x2="8.629" y2="37.879" gradientUnits="userSpaceOnUse"><stop stop-color="#EFC586" stop-opacity=".01"/><stop offset=".449" stop-color="#EBB667"/><stop offset=".83" stop-color="#CF9A59"/><stop offset="1" stop-color="#BC864F"/></linearGradient><linearGradient id="p" x1="11.358" y1="33.511" x2="19.248" y2="38.139" gradientUnits="userSpaceOnUse"><stop offset=".536" stop-color="#EFC586" stop-opacity=".01"/><stop offset="1" stop-color="#BC864F"/></linearGradient><linearGradient id="q" x1="21.898" y1="11.993" x2="24.896" y2="13.136" gradientUnits="userSpaceOnUse"><stop offset=".157" stop-color="#2D93CF"/><stop offset=".691" stop-color="#025C9F"/><stop offset=".893" stop-color="#026EB6"/></linearGradient><linearGradient id="r" x1="29.889" y1="-1.258" x2="14.447" y2="-4.482" gradientUnits="userSpaceOnUse"><stop offset=".335" stop-color="#459CD2"/><stop offset=".472" stop-color="#519CCF" stop-opacity=".01"/></linearGradient><linearGradient id="s" x1="16.474" y1="26.343" x2="18.535" y2="23.176" gradientUnits="userSpaceOnUse"><stop offset=".825" stop-color="#EDC483" stop-opacity=".01"/><stop offset=".853" stop-color="#E4B979" stop-opacity=".113"/><stop offset=".949" stop-color="#C8955A" stop-opacity=".5"/><stop offset="1" stop-color="#BF894F" stop-opacity=".8"/></linearGradient><linearGradient id="t" x1="20.891" y1="25.7" x2="26.261" y2="25.7" gradientUnits="userSpaceOnUse"><stop offset=".025" stop-color="#4199CF"/><stop offset=".096" stop-color="#2282C5"/><stop offset=".711" stop-color="#025596" stop-opacity=".01"/></linearGradient><linearGradient id="u" x1="23.889" y1="29.14" x2="24.693" y2="25.301" gradientUnits="userSpaceOnUse"><stop offset=".78" stop-color="#EDC483" stop-opacity=".01"/><stop offset=".811" stop-color="#E4B979" stop-opacity=".113"/><stop offset=".915" stop-color="#C8955A" stop-opacity=".5"/><stop offset="1" stop-color="#BF894F" stop-opacity=".9"/></linearGradient><radialGradient id="g" cx="0" cy="0" r="1" gradientUnits="userSpaceOnUse" gradientTransform="matrix(11.8503 0 0 11.9939 10.302 7.253)"><stop stop-color="#D84540"/><stop offset=".982" stop-color="#E77056" stop-opacity=".01"/></radialGradient><radialGradient id="h" cx="0" cy="0" r="1" gradientUnits="userSpaceOnUse" gradientTransform="matrix(10.34167 -10.46697 10.46619 10.3409 43.484 27.116)"><stop offset=".124" stop-color="#C93E35"/><stop offset=".982" stop-color="#E77056" stop-opacity=".01"/></radialGradient><radialGradient id="i" cx="0" cy="0" r="1" gradientUnits="userSpaceOnUse" gradientTransform="matrix(13.1994 0 0 13.3594 43.426 7.633)"><stop stop-color="#BE463F"/><stop offset=".982" stop-color="#E77056" stop-opacity=".01"/></radialGradient><radialGradient id="j" cx="0" cy="0" r="1" gradientUnits="userSpaceOnUse" gradientTransform="matrix(9.82614 1.2145 -2.55424 20.66545 27.83 4.556)"><stop stop-color="#fff"/><stop offset=".982" stop-color="#E77056" stop-opacity=".01"/></radialGradient><radialGradient id="k" cx="0" cy="0" r="1" gradientUnits="userSpaceOnUse" gradientTransform="matrix(14.5394 0 0 14.7072 33.7 26.378)"><stop stop-color="#D02C25"/><stop offset=".982" stop-color="#E77056" stop-opacity=".01"/></radialGradient><filter id="b" x="7.477" y=".537" width="35.951" height="39.71" filterUnits="userSpaceOnUse" color-interpolation-filters="sRGB"><feFlood flood-opacity="0" result="BackgroundImageFix"/><feBlend in="SourceGraphic" in2="BackgroundImageFix" result="shape"/><feColorMatrix in="SourceAlpha" values="0 0 0 0 0 0 0 0 0 0 0 0 0 0 0 0 0 0 127 0" result="hardAlpha"/><feOffset/><feGaussianBlur stdDeviation=".541"/><feComposite in2="hardAlpha" operator="arithmetic" k2="-1" k3="1"/><feColorMatrix values="0 0 0 0 0 0 0 0 0 0 0 0 0 0 0 0 0 0 0.55 0"/><feBlend in2="shape" result="effect1_innerShadow_10668_33663"/></filter><filter id="l" x=".149" y="19.221" width="25.179" height="19.03" filterUnits="userSpaceOnUse" color-interpolation-filters="sRGB"><feFlood flood-opacity="0" result="BackgroundImageFix"/><feColorMatrix in="SourceAlpha" values="0 0 0 0 0 0 0 0 0 0 0 0 0 0 0 0 0 0 127 0" result="hardAlpha"/><feOffset dy=".036"/><feGaussianBlur stdDeviation=".108"/><feComposite in2="hardAlpha" operator="out"/><feColorMatrix values="0 0 0 0 0 0 0 0 0 0 0 0 0 0 0 0 0 0 0.25 0"/><feBlend in2="BackgroundImageFix" result="effect1_dropShadow_10668_33663"/><feBlend in="SourceGraphic" in2="effect1_dropShadow_10668_33663" result="shape"/></filter><clipPath id="a"><path fill="#fff" transform="translate(0 .433)" d="M0 0h162.4v40H0z"/></clipPath></defs></svg>